<svg id="图层_1" data-name="图层 1" xmlns="http://www.w3.org/2000/svg" viewBox="0 0 264 67"><title>哈哈</title><polygon points="171.241 9.111 171.576 7.018 159.03 7.018 156.565 21.182 169.117 21.182 169.466 19.09 158.995 19.09 159.736 14.94 169.883 14.94 170.26 12.847 160.11 12.847 160.761 9.111 171.241 9.111" fill="#151619"/><path d="M185.958,7.33834a11.75888,11.75888,0,0,0-3.36591-.39546h-2.60814a18.89762,18.89762,0,0,0-3.567.26958,5.13807,5.13807,0,0,0-2.25454.98524,4.75022,4.75022,0,0,0-1.37309,1.96427,17.13626,17.13626,0,0,0-.84446,3.2758,25.53522,25.53522,0,0,0-.5122,3.84463,3.98328,3.98328,0,0,0,.56741,2.21535,3.36289,3.36289,0,0,0,1.87081,1.29293,11.13348,11.13348,0,0,0,3.27037.39167h2.73a22.10183,22.10183,0,0,0,3.624-.2351,5.21435,5.21435,0,0,0,2.27265-.90917,4.36466,4.36466,0,0,0,1.37644-1.8653,15.90321,15.90321,0,0,0,.82279-3.1409,30.73171,30.73171,0,0,0,.53983-4.02009,4.18394,4.18394,0,0,0-.59666-2.34376A3.47845,3.47845,0,0,0,185.958,7.33834Zm-5.86608,11.73258h-2.97572a14.25182,14.25182,0,0,1-1.932-.10443,3.089,3.089,0,0,1-1.06669-.31532,1.037,1.037,0,0,1-.46841-.51047,2.51391,2.51391,0,0,1-.15192-.95217,8.5183,8.5183,0,0,1,.08607-1.14114c.05855-.4288.19527-1.26649.40657-2.49053a14.88073,14.88073,0,0,1,.61677-2.56117,2.71047,2.71047,0,0,1,.85833-1.24162,3.17448,3.17448,0,0,1,1.48847-.55772,22.33508,22.33508,0,0,1,2.91326-.142h2.44062a12.65491,12.65491,0,0,1,2.74474.22031,1.77381,1.77381,0,0,1,1.09644.61348,2.322,2.322,0,0,1,.29415,1.28332,30.82014,30.82014,0,0,1-.511,3.53544l-.00028.00162a13.7268,13.7268,0,0,1-.611,2.46959,2.64894,2.64894,0,0,1-.85153,1.20942,3.2377,3.2377,0,0,1-1.48245.54145A22.1202,22.1202,0,0,1,180.09189,19.07092Z" fill="#151619"/><path d="M204.8916,14.72253a2.43871,2.43871,0,0,0-1.09711-1.11276,5.59451,5.59451,0,0,0-1.8361-.5293,23.783,23.783,0,0,0-2.7097-.17671l-4.44948-.09387a11.92033,11.92033,0,0,1-1.98947-.16674,1.46124,1.46124,0,0,1-.81911-.38164,1.17812,1.17812,0,0,1-.21688-.78034,2.67567,2.67567,0,0,1,.30251-1.33259,1.784,1.784,0,0,1,.87632-.766,3.98639,3.98639,0,0,1,1.5766-.27189h6.74926a5.671,5.671,0,0,1,1.70413.2032,1.52165,1.52165,0,0,1,.79036.51114,1.42372,1.42372,0,0,1,.23281.84894c0,.0556-.00618.18084-.03565.46176l-.03972.378h2.07393l.051-.28117a5.19421,5.19421,0,0,0,.08061-.92474A2.90445,2.90445,0,0,0,204.997,7.8216a5.306,5.306,0,0,0-3.16469-.80362h-7.34068a4.866,4.866,0,0,0-3.60407,1.261,4.53193,4.53193,0,0,0-1.244,3.31483,3.3232,3.3232,0,0,0,.48624,1.89131,2.78458,2.78458,0,0,0,1.62736,1.048,12.79393,12.79393,0,0,0,2.95081.34106l4.65912.12206a14.27741,14.27741,0,0,1,2.461.19933,1.87254,1.87254,0,0,1,1.0244.47359,1.39056,1.39056,0,0,1,.27092.93738,2.79426,2.79426,0,0,1-.23348,1.21229,1.78488,1.78488,0,0,1-.61917.73279,2.88868,2.88868,0,0,1-.98669.40549,6.41692,6.41692,0,0,1-1.376.13262h-6.32686a4.08386,4.08386,0,0,1-2.16708-.4139,1.25877,1.25877,0,0,1-.54145-1.1212,2.76148,2.76148,0,0,1,.03148-.48031l.07755-.40644h-2.08869l-.05114.281a5.35088,5.35088,0,0,0-.08061.95307,2.93474,2.93474,0,0,0,.57671,1.82179,3.38278,3.38278,0,0,0,1.5107,1.1073,5.6329,5.6329,0,0,0,2.02847.35137h6.862a8.14069,8.14069,0,0,0,3.15772-.51593,3.46487,3.46487,0,0,0,1.79382-1.60465,5.60064,5.60064,0,0,0,.52546-2.54911A4.15149,4.15149,0,0,0,204.8916,14.72253Z" fill="#151619"/><path d="M217.46644,11.245a5.07779,5.07779,0,0,0-1.94786-.34075h-3.72669a5.67726,5.67726,0,0,0-2.00407.26368,3.09379,3.09379,0,0,0-.41655.2029l.07164-.4478H207.355l-2.466,14.16437h2.09449l.76758-4.4946a4.32647,4.32647,0,0,0,2.6609.64591h3.43566a5.75866,5.75866,0,0,0,2.47928-.50234,4.234,4.234,0,0,0,1.7131-1.44454,5.366,5.366,0,0,0,.83855-2.12064,20.92543,20.92543,0,0,0,.371-3.09911,3.18728,3.18728,0,0,0-.46167-1.73713A2.80082,2.80082,0,0,0,217.46644,11.245Zm-9.15138,5.7272c.033-.24059.08379-.52839.15086-.85529.06953-.3383.13649-.69061.19772-1.0407a2.72428,2.72428,0,0,1,.97716-1.66315,3.2638,3.2638,0,0,1,2.10992-.63209h3.07583a3.231,3.231,0,0,1,1.84017.40989,1.35373,1.35373,0,0,1,.51839,1.19095,20.3376,20.3376,0,0,1-.3795,2.67382,2.55117,2.55117,0,0,1-.94435,1.72544,3.90721,3.90721,0,0,1-2.31.56215h-3.06664a2.57885,2.57885,0,0,1-1.69911-.46624,1.52286,1.52286,0,0,1-.51878-1.22847A5.01,5.01,0,0,1,208.31506,16.97217Z" fill="#151619"/><path d="M232.04714,11.68169a4.19273,4.19273,0,0,0-2.80441-.77747h-4.3833a6.10218,6.10218,0,0,0-1.51766.17056,3.6852,3.6852,0,0,0-1.20468.54919,2.99875,2.99875,0,0,0-.85142.901,3.54251,3.54251,0,0,0-.43426,1.202l-.10095.63106h2.11789l.08329-.52045c.11905-.711.85527-1.0566,2.2507-1.0566H229.235a2.037,2.037,0,0,1,1.31081.33084,1.07,1.07,0,0,1,.36318.86638,2.87818,2.87818,0,0,1-.03281.3846l-.10964.654a1.83272,1.83272,0,0,0-.30279-.1654,4.86259,4.86259,0,0,0-1.76162-.2205h-5.23856c-2.1561,0-3.39834.85334-3.69221,2.53655-.076.43716-.12607.77217-.14869.99566a6.74721,6.74721,0,0,0-.03443.67755,2.20511,2.20511,0,0,0,.39343,1.3278,2.2382,2.2382,0,0,0,1.04658.78086,3.84826,3.84826,0,0,0,1.35727.23306h6.02486a3.61952,3.61952,0,0,0,1.26251-.18582q.04212-.01571.083-.03331l-.03838.21914H231.793l1.0819-6.0528a9.14828,9.14828,0,0,0,.09855-1.40488A2.58493,2.58493,0,0,0,232.04714,11.68169ZM228.203,19.30563h-5.07321a2.30657,2.30657,0,0,1-1.22151-.21471.56634.56634,0,0,1-.25554-.52251,5.05548,5.05548,0,0,1,.10769-.95688,1.28225,1.28225,0,0,1,.42825-.841,2.16889,2.16889,0,0,1,1.288-.263h5.31717c1.334,0,1.50507.52944,1.50507.9907C230.29884,18.73134,229.63287,19.30563,228.203,19.30563Z" fill="#151619"/><path d="M247.01647,14.18462a3.38816,3.38816,0,0,0-.42362-1.67351,2.9851,2.9851,0,0,0-1.32524-1.21477,4.8292,4.8292,0,0,0-2.14173-.42967h-3.6985a4.851,4.851,0,0,0-1.96067.34426,3.08873,3.08873,0,0,0-.48173.26833l.0966-.575h-2.05349l-1.7902,10.27813h2.05449l1.03438-5.87675a3.57077,3.57077,0,0,1,.54117-1.39719,2.4303,2.4303,0,0,1,.998-.85022,3.516,3.516,0,0,1,1.50045-.296H242.79a2.52744,2.52744,0,0,1,1.6292.44223,1.52043,1.52043,0,0,1,.50468,1.25248,2.73364,2.73364,0,0,1-.05081.47382l-.07337.40351h2.08312l.05226-.27936A4.74246,4.74246,0,0,0,247.01647,14.18462Z" fill="#151619"/><polygon points="259.867 10.904 256.641 10.904 251.953 14.039 250.227 14.039 251.439 7.018 249.364 7.018 246.896 21.182 248.973 21.182 249.838 16.104 251.681 16.104 255.937 21.182 258.573 21.182 253.612 15.203 259.867 10.904" fill="#151619"/><path d="M38.37109,42.88672a7.33332,7.33332,0,0,0-.56738-.68848l-.34717-.37109.37646-.34082c.13574-.123.26709-.251.39355-.38574a7.423,7.423,0,0,0,1.67676-2.93848,11.66253,11.66253,0,0,0,.499-3.42773,8.23833,8.23833,0,0,0-2.627-6.50977c-1.72168-1.5127-4.29834-2.248-7.87744-2.248H6.49023L.666,59.43262H26.52686a18.755,18.755,0,0,0,6.42285-1.03418,9.73657,9.73657,0,0,0,4.8125-3.7627,12.19021,12.19021,0,0,0,1.79736-6.93359A8.07253,8.07253,0,0,0,38.37109,42.88672Zm-5.38721,8.42676H32.9834A4.72947,4.72947,0,0,1,30.76465,53.167a8.65068,8.65068,0,0,1-3.25977.60156H7.30762l1.564-8.9668H29.25391c2.22314,0,3.26563.39941,3.749.73438a2.66826,2.66826,0,0,1,.84863,2.34668A6.1541,6.1541,0,0,1,32.98389,51.31348Zm.353-13.27637a7.95739,7.95739,0,0,1-4.68652,1.10059H9.87891l1.30566-7.49707H30.335c2.08154,0,3.04395.41211,3.48486.75781a2.94231,2.94231,0,0,1,.83154,2.418C34.65137,36.82715,33.90137,37.61719,33.33691,38.03711Z" fill="#151619"/><polygon points="46.571 25.977 40.732 59.433 46.398 59.433 52.237 25.977 46.571 25.977" fill="#151619"/><path d="M79.51514,37.02441c-1.54395-1.45117-3.82666-2.1875-6.78369-2.1875h-8.7959c-6.8999,0-11.13916,3.35938-12.25879,9.71582a43.85792,43.85792,0,0,0-.77393,7.207,7.00921,7.00921,0,0,0,2.53809,5.77441,10.34645,10.34645,0,0,0,6.62646,1.94238h8.81738c3.65283,0,6.50635-.8584,8.48145-2.55078a11.53435,11.53435,0,0,0,3.7334-7.11719,43.48655,43.48655,0,0,0,.77441-7.082A7.50638,7.50638,0,0,0,79.51514,37.02441Zm-3.40186,8.623c-.13965.99609-.34766,2.25293-.61816,3.7334-.57715,3.36621-2.626,4.92773-6.45117,4.92773H60.86133a5.79482,5.79482,0,0,1-3.50977-.83691,2.80415,2.80415,0,0,1-.93555-2.38184,10.214,10.214,0,0,1,.07861-1.17773c.0542-.46289.14209-1.07031.26172-1.80371.12158-.74316.29834-1.79785.52539-3.13477a7.16313,7.16313,0,0,1,1.13623-2.917A4.2301,4.2301,0,0,1,60.395,40.5625a9.64776,9.64776,0,0,1,3.38086-.51465H71.959c3.84082,0,4.35889,1.6709,4.35889,3.30469A17.54083,17.54083,0,0,1,76.11328,45.64746Z" fill="#151619"/><path d="M105.51758,53.84277a9.65756,9.65756,0,0,1-3.05518.42285H92.63867a3.60323,3.60323,0,0,1-2.49219-.81152,2.76552,2.76552,0,0,1-.85205-2.32129,23.01979,23.01979,0,0,1,.22705-2.46c.15479-1.19336.355-2.51172.59619-3.917A5.567,5.567,0,0,1,91.98926,41.21,5.941,5.941,0,0,1,95.834,40.04785h9.543c3.5957,0,4.05664,1.43164,4.05664,2.67871a10.01176,10.01176,0,0,1-.0791,1.0127l-.14893,1.34375h5.60059l.14893-1.03906a14.61944,14.61944,0,0,0,.18652-1.92285,6.59327,6.59327,0,0,0-1.16309-3.78418,7.38757,7.38757,0,0,0-3.521-2.627,14.92761,14.92761,0,0,0-5.4165-.873H96.26074a11.83362,11.83362,0,0,0-7.93652,2.56055,11.29589,11.29589,0,0,0-3.74463,6.75293c-.36377,2.10742-.61426,3.71973-.74609,4.80469a25.63557,25.63557,0,0,0-.20361,3.06348,7.12412,7.12412,0,0,0,2.2002,5.2627,8.68425,8.68425,0,0,0,6.31934,2.15137h9.81592a16.72693,16.72693,0,0,0,6.166-.9502,8.10178,8.10178,0,0,0,3.86914-3.02637,12.751,12.751,0,0,0,1.79541-4.84668l.25244-1.42285h-5.67578l-.17334,1.00586a5.5234,5.5234,0,0,1-.95068,2.45605A3.55115,3.55115,0,0,1,105.51758,53.84277Z" fill="#151619"/><polygon points="146.766 34.924 137.845 34.924 127.052 42.142 123.71 42.142 126.501 25.977 120.864 25.977 115.035 59.433 120.678 59.433 122.668 47.741 126.357 47.741 136.155 59.433 143.322 59.433 131.622 45.329 146.766 34.924" fill="#151619"/><path d="M221.498,34.73438a8.23833,8.23833,0,0,0-2.627-6.50977c-1.7207-1.5127-4.29687-2.248-7.877-2.248H187.58691l-5.75293,33.041-11.20508-33.041h-6.43359L141.19922,59.43262h6.53027l5.10059-7.47754h20.33984l2.52832,7.47754H207.623a18.755,18.755,0,0,0,6.42285-1.03418,9.73657,9.73657,0,0,0,4.8125-3.7627,12.18966,12.18966,0,0,0,1.79688-6.93359,8.07253,8.07253,0,0,0-1.18848-4.81543,7.29793,7.29793,0,0,0-.56738-.68945l-.34668-.37207.37891-.34082c.13477-.12109.26563-.25.39063-.38281A7.44242,7.44242,0,0,0,221,38.16113,11.67369,11.67369,0,0,0,221.498,34.73438ZM156.959,46.11816l9.59082-13.93164,4.66113,13.93164Zm57.12012,5.19531a4.72021,4.72021,0,0,1-2.21875,1.85352,8.6474,8.6474,0,0,1-3.25879.60156H188.40332l1.56445-8.9668h20.38281c2.22266,0,3.26465.39941,3.748.73438a2.66712,2.66712,0,0,1,.84961,2.34668A6.142,6.142,0,0,1,214.0791,51.31348Zm.35449-13.27637a7.96189,7.96189,0,0,1-4.6875,1.10059H190.97461l1.30566-7.49707h19.15039c2.08105,0,3.04395.41211,3.48535.75781a2.94225,2.94225,0,0,1,.83105,2.418C215.74707,36.82617,214.99707,37.61719,214.43359,38.03711Z" fill="#2491fc"/><path d="M260.63965,27.7627a10.42073,10.42073,0,0,0-3.459-1.5625,17.89521,17.89521,0,0,0-4.5459-.52637H240.85645a31.05258,31.05258,0,0,0-7.02539.66016,11.33656,11.33656,0,0,0-4.80664,2.333,11.021,11.021,0,0,0-2.99316,4.33691,35.139,35.139,0,0,0-1.77734,6.77051,68.68873,68.68873,0,0,0-1.25,9.67285,12.2594,12.2594,0,0,0,.68164,4.27051,7.908,7.908,0,0,0,2.19238,3.209,9.35376,9.35376,0,0,0,3.6416,1.9082,18.19646,18.19646,0,0,0,4.957.59766h12.78809a20.938,20.938,0,0,0,7.27051-1.03809,9.0977,9.0977,0,0,0,4.45215-3.3125,13.78047,13.78047,0,0,0,2.042-5.42285l.252-1.42383h-5.667l-.17285,1.00586a4.84205,4.84205,0,0,1-1.99121,3.48828c-.7793.50391-2.4082,1.10352-5.73535,1.10352H233.958c-1.62793,0-5.44043,0-5.44043-4.27734a80.36488,80.36488,0,0,1,1.2334-9.03906,27.51913,27.51913,0,0,1,1.29395-5.03613,6.51219,6.51219,0,0,1,1.67188-2.53125,5.58955,5.58955,0,0,1,2.51367-1.23047,20.52342,20.52342,0,0,1,4.38574-.38086h12.418a9.5729,9.5729,0,0,1,4.78223.86035,2.30207,2.30207,0,0,1,1.08984,2.16406,6.51077,6.51077,0,0,1-.11133,1.13086l-.251,1.4209h5.65234l.18066-.99414a12.94186,12.94186,0,0,0,.19434-2.31348,7.40029,7.40029,0,0,0-.72754-3.26465A6.94787,6.94787,0,0,0,260.63965,27.7627Z" fill="#2491fc"/></svg>